<svg width="512" height="512" viewBox="0 0 512 512" fill="none" xmlns="http://www.w3.org/2000/svg">
<rect width="512" height="512" rx="50" fill="white"/>
<path d="M156 383.75V352.5H124.75C119.333 352.5 114.854 350.729 111.312 347.188C107.771 343.646 106 339.167 106 333.75C106 328.333 107.771 323.854 111.312 320.312C114.854 316.771 119.333 315 124.75 315H156V283.75C156 278.333 157.771 273.854 161.312 270.312C164.854 266.771 169.333 265 174.75 265C180.167 265 184.646 266.771 188.188 270.312C191.729 273.854 193.5 278.333 193.5 283.75V315H224.75C230.167 315 234.646 316.771 238.188 320.312C241.729 323.854 243.5 328.333 243.5 333.75C243.5 339.167 241.729 343.646 238.188 347.188C234.646 350.729 230.167 352.5 224.75 352.5H193.5V383.75C193.5 389.167 191.729 393.646 188.188 397.188C184.646 400.729 180.167 402.5 174.75 402.5C169.333 402.5 164.854 400.729 161.312 397.188C157.771 393.646 156 389.167 156 383.75Z" fill="url(#paint0_linear_83_31)"/>
<path d="M387.25 383.75H299.75C294.333 383.75 289.854 381.979 286.312 378.438C282.771 374.896 281 370.417 281 365C281 359.583 282.771 355.104 286.312 351.562C289.854 348.021 294.333 346.25 299.75 346.25H387.25C392.667 346.25 397.146 348.021 400.688 351.562C404.229 355.104 406 359.583 406 365C406 370.417 404.229 374.896 400.688 378.438C397.146 381.979 392.667 383.75 387.25 383.75Z" fill="url(#paint1_linear_83_31)"/>
<path d="M387.25 321.25H299.75C294.333 321.25 289.854 319.479 286.312 315.938C282.771 312.396 281 307.917 281 302.5C281 297.083 282.771 292.604 286.312 289.062C289.854 285.521 294.333 283.75 299.75 283.75H387.25C392.667 283.75 397.146 285.521 400.688 289.062C404.229 292.604 406 297.083 406 302.5C406 307.917 404.229 312.396 400.688 315.938C397.146 319.479 392.667 321.25 387.25 321.25Z" fill="url(#paint2_linear_83_31)"/>
<path d="M365.375 213.125L343.5 191.25L321.625 213.125C317.875 216.875 313.5 218.75 308.5 218.75C303.5 218.75 299.125 216.875 295.375 213.125C291.625 209.375 289.75 205 289.75 200C289.75 195 291.417 190.625 294.75 186.875L317.25 163.75L295.375 141.875C291.625 138.125 289.75 133.75 289.75 128.75C289.75 123.75 291.625 119.375 295.375 115.625C299.125 111.875 303.5 110 308.5 110C313.5 110 317.875 111.875 321.625 115.625L343.5 137.5L365.375 115.625C369.125 111.875 373.5 110 378.5 110C383.5 110 387.875 111.875 391.625 115.625C395.375 119.375 397.25 123.75 397.25 128.75C397.25 133.75 395.375 138.125 391.625 141.875L369.75 163.75L392.25 186.875C395.583 190.625 397.146 195.104 396.938 200.312C396.729 205.521 394.958 209.792 391.625 213.125C387.875 216.875 383.5 218.75 378.5 218.75C373.5 218.75 369.125 216.875 365.375 213.125Z" fill="url(#paint3_linear_83_31)"/>
<path d="M218.5 182.5H131C125.583 182.5 121.104 180.729 117.562 177.188C114.021 173.646 112.25 169.167 112.25 163.75C112.25 158.333 114.021 153.854 117.562 150.312C121.104 146.771 125.583 145 131 145H218.5C223.917 145 228.396 146.771 231.938 150.312C235.479 153.854 237.25 158.333 237.25 163.75C237.25 169.167 235.479 173.646 231.938 177.188C228.396 180.729 223.917 182.5 218.5 182.5Z" fill="url(#paint4_linear_83_31)"/>
<defs>
<linearGradient id="paint0_linear_83_31" x1="508" y1="-7.50002" x2="16.5" y2="501" gradientUnits="userSpaceOnUse">
<stop stop-color="#01C2FF"/>
<stop offset="1" stop-color="#003499"/>
</linearGradient>
<linearGradient id="paint1_linear_83_31" x1="508" y1="-7.50002" x2="16.5" y2="501" gradientUnits="userSpaceOnUse">
<stop stop-color="#01C2FF"/>
<stop offset="1" stop-color="#003499"/>
</linearGradient>
<linearGradient id="paint2_linear_83_31" x1="508" y1="-7.50002" x2="16.5" y2="501" gradientUnits="userSpaceOnUse">
<stop stop-color="#01C2FF"/>
<stop offset="1" stop-color="#003499"/>
</linearGradient>
<linearGradient id="paint3_linear_83_31" x1="508" y1="-7.50002" x2="16.5" y2="501" gradientUnits="userSpaceOnUse">
<stop stop-color="#01C2FF"/>
<stop offset="1" stop-color="#003499"/>
</linearGradient>
<linearGradient id="paint4_linear_83_31" x1="508" y1="-7.50002" x2="16.5" y2="501" gradientUnits="userSpaceOnUse">
<stop stop-color="#01C2FF"/>
<stop offset="1" stop-color="#003499"/>
</linearGradient>
</defs>
</svg>
